<svg width="105" height="32" viewBox="0 0 105 32" fill="none" xmlns="http://www.w3.org/2000/svg">
<path d="M0 2.14941H5.18129L10.4949 17.1862L15.8305 2.14941H21.0339L12.9422 22.2352H8.04755L0 2.14941Z" fill="black"/>
<path d="M20.9444 12.2081C20.8686 10.7678 21.1002 9.32788 21.6238 7.98399C22.1474 6.64011 22.951 5.42304 23.9812 4.41367C25.0114 3.4043 26.2447 2.62574 27.599 2.12973C28.9533 1.63372 30.3977 1.43162 31.8361 1.53686C33.2707 1.43222 34.7111 1.63326 36.0622 2.12667C37.4133 2.62008 38.6442 3.39462 39.6738 4.39912C40.7033 5.40361 41.5078 6.61518 42.0343 7.95373C42.5608 9.29228 42.7972 10.7273 42.7279 12.164V13.068L42.331 13.4869H25.839C25.9986 14.9561 26.703 16.3121 27.8131 17.2876C28.9233 18.263 30.3586 18.7871 31.8361 18.7564C32.9729 18.7663 34.0897 18.4577 35.0601 17.8653C36.0304 17.273 36.8154 16.4207 37.3261 15.4051H42.2208C41.5236 17.6011 40.1317 19.5111 38.2547 20.8473C36.3777 22.1834 34.1173 22.8734 31.8141 22.8132C30.3832 22.9143 28.9472 22.7114 27.6004 22.2178C26.2536 21.7242 25.0265 20.9512 23.9998 19.9495C22.9731 18.9478 22.17 17.7401 21.6434 16.4058C21.1168 15.0716 20.8786 13.641 20.9444 12.2081V12.2081ZM37.5025 9.4962C37.0563 8.35669 36.2769 7.37818 35.266 6.68842C34.2552 5.99867 33.0599 5.6297 31.8361 5.6297C30.6124 5.6297 29.417 5.99867 28.4062 6.68842C27.3954 7.37818 26.616 8.35669 26.1698 9.4962H37.5025Z" fill="black"/>
<path d="M45.6393 2.14939H50.556V4.50853C51.0823 3.69029 51.7978 3.01071 52.6421 2.52719C53.4863 2.04367 54.4345 1.77041 55.4066 1.73048C56.1614 1.72907 56.9097 1.87123 57.6114 2.14939V5.94166H55.9578C52.5844 5.94166 50.556 7.6614 50.556 10.3513V22.2352H45.6393V2.14939Z" fill="black"/>
<path d="M57.8541 22.2369H62.6826C63.0382 23.3985 63.7765 24.4055 64.7774 25.0941C65.7782 25.7827 66.9826 26.1123 68.1946 26.0292C68.9864 26.0955 69.7829 25.9834 70.5256 25.7011C71.2683 25.4189 71.9383 24.9737 72.4861 24.3983C73.034 23.8229 73.4459 23.132 73.6915 22.3763C73.937 21.6207 74.01 20.8196 73.905 20.0321V19.7234C72.2444 21.3062 70.0475 22.2039 67.7536 22.2369C66.3903 22.3061 65.0279 22.0847 63.7566 21.5876C62.4853 21.0905 61.3341 20.3289 60.3793 19.3533C59.4246 18.3777 58.688 17.2103 58.2184 15.9286C57.7489 14.6468 57.557 13.2799 57.6556 11.9184C57.5514 10.5563 57.7373 9.18756 58.2011 7.90261C58.665 6.61767 59.3962 5.44575 60.3464 4.46427C61.2966 3.48279 62.4442 2.71409 63.7135 2.20893C64.9828 1.70377 66.3448 1.47365 67.7095 1.53377C70.006 1.57492 72.2025 2.4803 73.861 4.0693V2.10702H78.6895V19.988C78.6895 26.5804 74.809 30.1962 68.1946 30.1962C65.7878 30.4033 63.3909 29.7008 61.4766 28.2273C59.5624 26.7539 58.2698 24.6165 57.8541 22.2369V22.2369ZM73.861 11.9184C73.9306 11.1263 73.8348 10.3284 73.5794 9.57537C73.3241 8.82233 72.9149 8.13065 72.3778 7.54429C71.8408 6.95792 71.1876 6.4897 70.4599 6.16937C69.7321 5.84904 68.9457 5.68362 68.1505 5.68362C67.3554 5.68362 66.5689 5.84904 65.8411 6.16937C65.1134 6.4897 64.4602 6.95792 63.9232 7.54429C63.3861 8.13065 62.9769 8.82233 62.7216 9.57537C62.4663 10.3284 62.3704 11.1263 62.4401 11.9184C62.4401 13.4329 63.0417 14.8854 64.1126 15.9563C65.1835 17.0272 66.636 17.6288 68.1505 17.6288C69.665 17.6288 71.1175 17.0272 72.1884 15.9563C73.2593 14.8854 73.861 13.4329 73.861 11.9184V11.9184Z" fill="black"/>
<path d="M81.18 12.2028C81.18 9.3141 82.3275 6.54375 84.3701 4.50115C86.4127 2.45856 89.183 1.31104 92.0717 1.31104C94.9604 1.31104 97.7307 2.45856 99.7733 4.50115C101.816 6.54375 102.963 9.3141 102.963 12.2028C102.963 15.0914 101.816 17.8618 99.7733 19.9044C97.7307 21.947 94.9604 23.0945 92.0717 23.0945C89.183 23.0945 86.4127 21.947 84.3701 19.9044C82.3275 17.8618 81.18 15.0914 81.18 12.2028ZM98.1349 12.2028C98.1349 10.5947 97.4961 9.0525 96.3591 7.91543C95.222 6.77836 93.6798 6.13956 92.0717 6.13956C90.4637 6.13956 88.9215 6.77836 87.7844 7.91543C86.6473 9.0525 86.0085 10.5947 86.0085 12.2028C86.0085 13.8108 86.6473 15.353 87.7844 16.4901C88.9215 17.6272 90.4637 18.266 92.0717 18.266C93.6798 18.266 95.222 17.6272 96.3591 16.4901C97.4961 15.353 98.1349 13.8108 98.1349 12.2028V12.2028Z" fill="black"/>
</svg>
